<svg id="Layer_1" data-name="Layer 1" xmlns="http://www.w3.org/2000/svg" width="1.19cm" height="1.19cm" viewBox="0 0 33.6 33.6"><defs><style>.cls-1{fill:#fff;}.cls-1,.cls-2{stroke:#000;}.cls-1,.cls-2,.cls-3{stroke-miterlimit:10;}.cls-2{fill:none;}.cls-3{fill:#ed1c24;stroke:#ed1c24;}</style></defs><rect class="cls-1" x="0.5" y="0.5" width="32.6" height="32.6" rx="2.83"/><rect class="cls-1" x="2.37" y="13.93" width="28.88" height="15.1"/><line class="cls-2" x1="16.72" y1="13.97" x2="16.72" y2="29.03"/><line class="cls-2" x1="24.05" y1="14.06" x2="24.05" y2="29.12"/><line class="cls-2" x1="9.22" y1="13.97" x2="9.22" y2="29.03"/><line class="cls-2" x1="2.43" y1="19.07" x2="31.19" y2="19.07"/><line class="cls-2" x1="2.31" y1="24.16" x2="31.07" y2="24.16"/><circle class="cls-3" cx="20.44" cy="21.63" r="1.65"/><path d="M8.56,3.63h.89V10.4H8.56Zm.56,5.93h1.11a.68.68,0,0,0,.47-.15A.54.54,0,0,0,10.86,9V8.1a1.1,1.1,0,0,0-.08-.43.61.61,0,0,0-.24-.28.6.6,0,0,0-.35-.1H9.12V6.46h1.07a.52.52,0,0,0,.43-.2.82.82,0,0,0,.15-.53V5a.52.52,0,0,0-.57-.57H9.12V3.63h1.06a1.78,1.78,0,0,1,.8.16,1.2,1.2,0,0,1,.51.46,1.56,1.56,0,0,1,.17.74V5.7a1.6,1.6,0,0,1-.1.56,1,1,0,0,1-.3.41.93.93,0,0,1-.46.21,1.06,1.06,0,0,1,.51.21,1,1,0,0,1,.32.42,1.48,1.48,0,0,1,.12.61V9a1.6,1.6,0,0,1-.17.75,1.11,1.11,0,0,1-.49.47,1.73,1.73,0,0,1-.78.17H9.12Z" transform="translate(-0.19 -0.31)"/><path d="M13.44,10.4h-.89V3.63h.89Z" transform="translate(-0.19 -0.31)"/><path d="M14.36,3.63h.77L17,8.82l-.14.12V3.63h.84v6.76H16.9l-1.85-5,.15-.12v5.14h-.84Z" transform="translate(-0.19 -0.31)"/><path d="M21.88,6.75v2a2.07,2.07,0,0,1-.19.94,1.31,1.31,0,0,1-.55.59,1.76,1.76,0,0,1-.88.21,1.89,1.89,0,0,1-.89-.2,1.29,1.29,0,0,1-.57-.56,1.84,1.84,0,0,1-.19-.88V5.3a2.07,2.07,0,0,1,.19-.94,1.28,1.28,0,0,1,.56-.59,1.7,1.7,0,0,1,.87-.21,1.76,1.76,0,0,1,.86.2,1.29,1.29,0,0,1,.55.58,1.94,1.94,0,0,1,.19.91v.33h-.94V5.25a1.17,1.17,0,0,0-.08-.45.57.57,0,0,0-.22-.28.61.61,0,0,0-.36-.1.75.75,0,0,0-.4.11.6.6,0,0,0-.25.29,1.14,1.14,0,0,0-.09.48V8.83a.93.93,0,0,0,.09.42.57.57,0,0,0,.27.26.86.86,0,0,0,.41.1.82.82,0,0,0,.4-.1.68.68,0,0,0,.25-.3A1.09,1.09,0,0,0,21,8.74V7.59h-.76V6.75Z" transform="translate(-0.19 -0.31)"/><path d="M23.4,10.27a1.35,1.35,0,0,1-.57-.59,1.85,1.85,0,0,1-.2-.91V5.26a1.87,1.87,0,0,1,.2-.92,1.28,1.28,0,0,1,.57-.58,2.15,2.15,0,0,1,1.81,0,1.25,1.25,0,0,1,.58.58,2,2,0,0,1,.2.92V8.77a2,2,0,0,1-.2.91,1.32,1.32,0,0,1-.58.59,2.15,2.15,0,0,1-1.81,0Zm1.34-.76A.61.61,0,0,0,25,9.23a.94.94,0,0,0,.09-.43V5.23A1,1,0,0,0,25,4.79a.59.59,0,0,0-.27-.27,1,1,0,0,0-.86,0,.59.59,0,0,0-.27.27.89.89,0,0,0-.1.44V8.8a.83.83,0,0,0,.1.43.61.61,0,0,0,.27.28,1,1,0,0,0,.86,0Z" transform="translate(-0.19 -0.31)"/></svg>