<svg id="Layer_1" data-name="Layer 1" xmlns="http://www.w3.org/2000/svg" width="1.19cm" height="1.19cm" viewBox="0 0 33.75 33.75"><defs><style>.cls-1{fill:#fff;stroke-width:2px;}.cls-1,.cls-2,.cls-3{stroke:#000;stroke-miterlimit:10;}.cls-2{fill:#ed1c24;}</style></defs><circle class="cls-1" cx="16.87" cy="16.87" r="15.87"/><path d="M3.06,14.23H4.29V20.7H3.06Zm.54,5.3H5.67a.93.93,0,0,0,.64-.21.71.71,0,0,0,.24-.53h0a.88.88,0,0,0-.11-.42.63.63,0,0,0-.3-.26A1,1,0,0,0,5.67,18H3.6V16.79H5.67a.77.77,0,0,0,.58-.19.72.72,0,0,0,.21-.54.6.6,0,0,0-.21-.48.88.88,0,0,0-.58-.17H3.6V14.23H5.71a2.47,2.47,0,0,1,1.07.21,1.52,1.52,0,0,1,.68.6,1.86,1.86,0,0,1,.23,1,1.49,1.49,0,0,1-.15.66,1.22,1.22,0,0,1-.44.49,1.86,1.86,0,0,1-.68.25,1.73,1.73,0,0,1,.73.26,1.27,1.27,0,0,1,.46.54,1.61,1.61,0,0,1,.16.75h0a1.86,1.86,0,0,1-.23.95,1.46,1.46,0,0,1-.68.6,2.51,2.51,0,0,1-1.08.21H3.6Z" transform="translate(-0.13 -0.14)"/><path d="M9.81,20.48A2.16,2.16,0,0,1,9,19.64a2.57,2.57,0,0,1-.32-1.24V16.55A2.48,2.48,0,0,1,9,15.3a2,2,0,0,1,.82-.84A2.61,2.61,0,0,1,11,14.17a2.54,2.54,0,0,1,1.24.29,2,2,0,0,1,.83.84,2.58,2.58,0,0,1,.29,1.25V18.4a2.62,2.62,0,0,1-.29,1.26,2.07,2.07,0,0,1-.83.83,2.73,2.73,0,0,1-2.49,0Zm1.82-1.08A.89.89,0,0,0,12,19a1.3,1.3,0,0,0,.14-.61V16.52a1.39,1.39,0,0,0-.14-.6,1,1,0,0,0-.38-.39,1.2,1.2,0,0,0-1.16,0,1,1,0,0,0-.39.39,1.38,1.38,0,0,0-.13.6V18.4a1.38,1.38,0,0,0,.13.6,1,1,0,0,0,.39.39,1.25,1.25,0,0,0,1.16,0Z" transform="translate(-0.13 -0.14)"/><path d="M14.62,14.23h1.49l2.4,5-.1.12V14.23h1.16V20.7h-1.5l-2.4-4.88.11-.12v5H14.62Z" transform="translate(-0.13 -0.14)"/><path d="M22,20.49a1.81,1.81,0,0,1-.8-.82,2.72,2.72,0,0,1-.28-1.31V14.23h1.22V18.4a1.24,1.24,0,0,0,.29.87,1.34,1.34,0,0,0,1.69,0,1.16,1.16,0,0,0,.3-.87V14.23h1.23v4.13a3,3,0,0,1-.28,1.31,1.94,1.94,0,0,1-.81.82A3,3,0,0,1,22,20.49Z" transform="translate(-0.13 -0.14)"/><path d="M27.92,20.68a3.38,3.38,0,0,1-.83-.28,3.14,3.14,0,0,1-.7-.43l.54-1a2.92,2.92,0,0,0,.86.48,3.18,3.18,0,0,0,1,.16,1.78,1.78,0,0,0,.93-.2.65.65,0,0,0,.33-.57h0a.61.61,0,0,0-.15-.41.94.94,0,0,0-.39-.22,4,4,0,0,0-.6-.13h-.15a5.76,5.76,0,0,1-1.07-.26,1.53,1.53,0,0,1-.72-.53,1.74,1.74,0,0,1-.3-1.08h0A2,2,0,0,1,27,15.13a1.79,1.79,0,0,1,.81-.68,3.5,3.5,0,0,1,2-.15,3.28,3.28,0,0,1,.71.23,3.82,3.82,0,0,1,.66.36l-.53,1a3.2,3.2,0,0,0-.78-.4,2.33,2.33,0,0,0-.78-.14,1.65,1.65,0,0,0-.87.18.57.57,0,0,0-.31.54h0a.6.6,0,0,0,.16.44,1,1,0,0,0,.4.24,5.28,5.28,0,0,0,.66.16h.18a5.16,5.16,0,0,1,1,.29,1.65,1.65,0,0,1,.69.53,1.76,1.76,0,0,1,.28,1h0A2,2,0,0,1,31,19.89a1.87,1.87,0,0,1-.81.66,3.55,3.55,0,0,1-1.33.23A4.61,4.61,0,0,1,27.92,20.68Z" transform="translate(-0.13 -0.14)"/><polygon class="cls-2" points="18.02 6.08 20.59 6.45 18.73 8.27 19.18 10.82 16.87 9.62 14.58 10.83 15.01 8.27 13.15 6.46 15.72 6.08 16.86 3.76 18.02 6.08"/><polygon class="cls-3" points="17.63 27.04 19.09 27.25 18.03 28.29 18.28 29.76 16.97 29.07 15.65 29.77 15.9 28.3 14.83 27.26 16.31 27.04 16.96 25.71 17.63 27.04"/><polygon class="cls-3" points="24.34 24.93 25.82 25.14 24.75 26.18 25.01 27.65 23.69 26.96 22.37 27.65 22.62 26.19 21.56 25.15 23.02 24.93 23.68 23.6 24.34 24.93"/><polygon class="cls-3" points="10.24 24.88 11.71 25.08 10.65 26.13 10.9 27.59 9.59 26.9 8.27 27.6 8.52 26.13 7.45 25.09 8.93 24.88 9.58 23.54 10.24 24.88"/><polygon class="cls-3" points="25.24 8.16 26.71 8.37 25.65 9.41 25.91 10.88 24.59 10.19 23.27 10.89 23.52 9.42 22.45 8.38 23.93 8.16 24.58 6.83 25.24 8.16"/><polygon class="cls-3" points="9.53 8.04 11.01 8.25 9.94 9.29 10.2 10.76 8.88 10.07 7.56 10.76 7.81 9.3 6.74 8.26 8.21 8.04 8.87 6.71 9.53 8.04"/></svg>