<svg id="Layer_1" data-name="Layer 1" xmlns="http://www.w3.org/2000/svg" width="1.19cm" height="1.11cm" viewBox="0 0 33.64 31.54"><defs><style>.cls-1{fill:#fff;stroke:#000;stroke-miterlimit:10;stroke-width:0.75px;}.cls-2{fill:#ed1c24;}</style></defs><rect class="cls-1" x="2.65" y="2.8" width="18.77" height="28.43" rx="2.83" transform="translate(-3.24 1.21) rotate(-10.96)"/><path class="cls-2" d="M13,13.27a1.68,1.68,0,0,1,1.29,1.4c.08.43,0,.82-1.27,2.89-.34.57-.65,1.05-.87,1.38l-.84-4.35A1.74,1.74,0,0,1,13,13.27ZM9.28,14a1.7,1.7,0,0,0-.67,1.78c.09.43.33.76,2.26,2.21.52.4,1,.73,1.31,1l-.84-4.36A1.73,1.73,0,0,0,9.28,14Z" transform="translate(-0.23 -1.39)"/><path class="cls-2" d="M3.6,5.25a.77.77,0,0,1,.58.63c0,.19,0,.37-.57,1.3-.15.26-.29.47-.39.62L2.85,5.85A.77.77,0,0,1,3.6,5.25Zm-1.68.33a.76.76,0,0,0-.3.8c0,.19.15.34,1,1l.59.43-.37-2a.78.78,0,0,0-.93-.26Z" transform="translate(-0.23 -1.39)"/><path class="cls-2" d="M21.59,25.64a.74.74,0,0,1,.58.63c0,.19,0,.37-.57,1.29-.15.26-.29.48-.39.63l-.38-2A.78.78,0,0,1,21.59,25.64ZM19.91,26a.75.75,0,0,0-.3.8c0,.2.14.34,1,1l.59.44-.38-2a.78.78,0,0,0-.92-.27Z" transform="translate(-0.23 -1.39)"/><rect class="cls-1" x="12.72" y="3.11" width="18.77" height="28.43" rx="2.83" transform="translate(3.37 -5.19) rotate(10.7)"/><path d="M22,19.05a6.14,6.14,0,0,0,.38.92l-1-.18.39-2.09A5.12,5.12,0,0,0,22,19.05Zm-.85-.17a4.72,4.72,0,0,1-.69.72l1,.19.39-2.08a4.45,4.45,0,0,1-.69,1.17Z" transform="translate(-0.23 -1.39)"/><path d="M19.67,18.77A1.66,1.66,0,0,1,19,17c.08-.43.32-.76,2.24-2.22.52-.41,1-.73,1.31-1l-.82,4.36A1.73,1.73,0,0,1,19.67,18.77Zm3.75.71a1.67,1.67,0,0,0,1.28-1.41c.08-.43,0-.81-1.28-2.88-.34-.57-.65-1-.87-1.38l-.82,4.37a1.72,1.72,0,0,0,1.69,1.31Z" transform="translate(-0.23 -1.39)"/><path d="M17.54,5.45a2.09,2.09,0,0,0,.17.41l-.44-.08.18-.93A2.08,2.08,0,0,0,17.54,5.45Zm-.39-.07a1.87,1.87,0,0,1-.31.32l.44.08.18-.93a2.54,2.54,0,0,1-.31.53Z" transform="translate(-0.23 -1.39)"/><path d="M16.49,5.33a.75.75,0,0,1-.31-.8c0-.19.15-.34,1-1,.24-.19.44-.34.59-.44l-.37,1.95A.77.77,0,0,1,16.49,5.33Zm1.68.32A.74.74,0,0,0,18.74,5c0-.19,0-.36-.57-1.29-.15-.26-.29-.47-.39-.62l-.37,2a.78.78,0,0,0,.76.59Z" transform="translate(-0.23 -1.39)"/><path d="M26.73,31a1.94,1.94,0,0,0,.17.42l-.43-.08.17-.94A2,2,0,0,0,26.73,31ZM26.35,31a3.26,3.26,0,0,1-.31.33l.43.08.18-.94a2.17,2.17,0,0,1-.31.53Z" transform="translate(-0.23 -1.39)"/><path d="M25.68,30.91a.74.74,0,0,1-.3-.8c0-.19.14-.34,1-1l.59-.44-.37,2A.78.78,0,0,1,25.68,30.91Zm1.68.32a.77.77,0,0,0,.58-.63c0-.19,0-.37-.58-1.29-.15-.26-.29-.48-.39-.63l-.37,2a.77.77,0,0,0,.76.59Z" transform="translate(-0.23 -1.39)"/></svg>