<svg id="Layer_1" data-name="Layer 1" xmlns="http://www.w3.org/2000/svg" width="1.17cm" height="1.17cm" viewBox="0 0 33.2 33.2"><defs><style>.cls-1{fill:#ed1c24;stroke:#fff;}.cls-1,.cls-3{stroke-miterlimit:10;stroke-width:2px;}.cls-2,.cls-3{fill:#fff;}.cls-3{stroke:#ed1c24;}</style></defs><circle class="cls-1" cx="16.6" cy="16.6" r="15.6"/><path class="cls-2" d="M18.33.78" transform="translate(-0.41 -0.33)"/><polygon class="cls-2" points="16.52 1.32 19.06 1.32 17.79 8.92 16.52 16.52 15.26 8.92 13.98 1.32 16.52 1.32"/><polygon class="cls-2" points="16.52 31.61 13.98 31.61 15.26 24.01 16.52 16.41 17.79 24.01 19.06 31.61 16.52 31.61"/><polygon class="cls-2" points="29.86 8.88 31.13 11.07 23.87 13.78 16.61 16.48 22.6 11.59 28.59 6.7 29.86 8.88"/><polygon class="cls-2" points="3.28 8.84 4.54 6.66 10.5 11.54 16.45 16.41 9.23 13.72 2.01 11.03 3.28 8.84"/><polygon class="cls-2" points="29.69 24 28.43 26.19 22.44 21.29 16.45 16.4 23.7 19.11 30.96 21.82 29.69 24"/><polygon class="cls-2" points="3.28 24 2 21.82 9.27 19.11 16.52 16.4 10.53 21.29 4.54 26.19 3.28 24"/><circle class="cls-3" cx="16.47" cy="16.54" r="10.37"/><path d="M16.37,19.9" transform="translate(-0.41 -0.33)"/><path d="M13.52,20.71a3,3,0,0,1-1.76-2.86c0-.77.32-1.42,3.18-4.58.77-.88,1.47-1.6,2-2.11V19A3.08,3.08,0,0,1,13.52,20.71Zm6.74,0A2.93,2.93,0,0,0,22,17.85c0-.77-.31-1.41-3.17-4.58-.77-.88-1.47-1.6-2-2.11V19a3,3,0,0,0,3.36,1.72Z" transform="translate(-0.41 -0.33)"/><path d="M17.68,20.42a9.55,9.55,0,0,0,.95,1.48H16.9V18.15A8.36,8.36,0,0,0,17.68,20.42Zm-1.55,0a8.27,8.27,0,0,1-.95,1.48h1.74V18.15a8.32,8.32,0,0,1-.81,2.27Z" transform="translate(-0.41 -0.33)"/></svg>