<svg id="Layer_1" data-name="Layer 1" xmlns="http://www.w3.org/2000/svg" width="1.2cm" height="1.2cm" viewBox="0 0 33.88 33.88"><defs><style>.cls-1,.cls-5{fill:#fff;}.cls-1,.cls-2,.cls-4{stroke:#000;}.cls-1,.cls-2,.cls-3,.cls-4{stroke-miterlimit:10;}.cls-3{fill:#ed1c24;stroke:#ed1c24;}.cls-3,.cls-4{stroke-width:0.75px;}</style></defs><circle class="cls-1" cx="16.94" cy="16.94" r="16.44"/><rect class="cls-2" x="2.12" y="12.09" width="29.67" height="9.92" rx="2.83"/><polygon class="cls-3" points="8.4 25.31 9.22 23.8 10.04 25.31 11.55 26.13 10.04 26.96 9.22 28.46 8.4 26.96 6.89 26.13 8.4 25.31"/><polygon class="cls-4" points="12.81 28.74 13.19 28.05 13.56 28.74 14.26 29.12 13.56 29.5 13.19 30.19 12.81 29.5 12.12 29.12 12.81 28.74"/><polygon class="cls-3" points="22.03 6.22 22.86 4.71 23.68 6.22 25.18 7.04 23.68 7.87 22.86 9.37 22.03 7.87 20.53 7.04 22.03 6.22"/><path class="cls-5" d="M3.93,20.69a1.52,1.52,0,0,1-.6-.52l.73-.68a1.08,1.08,0,0,0,.3.27.73.73,0,0,0,.35.09.49.49,0,0,0,.4-.16.63.63,0,0,0,.13-.44V14h1v5.37a1.83,1.83,0,0,1-.18.84,1.23,1.23,0,0,1-.54.52,1.78,1.78,0,0,1-.83.18A1.74,1.74,0,0,1,3.93,20.69Z" transform="translate(-0.11 -0.13)"/><path class="cls-5" d="M8.21,14H9l1.61,6.84H9.58l-1-5-1,5H6.6Zm-.55,4.6H9.61v1H7.66Z" transform="translate(-0.11 -0.13)"/><path class="cls-5" d="M11.57,20.67a1.41,1.41,0,0,1-.56-.6,2.1,2.1,0,0,1-.19-.94V15.64a2.12,2.12,0,0,1,.19-1,1.41,1.41,0,0,1,.56-.6,1.8,1.8,0,0,1,.87-.2,1.7,1.7,0,0,1,.87.2,1.36,1.36,0,0,1,.56.6,2.3,2.3,0,0,1,.19,1v.42H13v-.42a1.14,1.14,0,0,0-.06-.39.51.51,0,0,0-.2-.25.52.52,0,0,0-.31-.09.54.54,0,0,0-.31.09.6.6,0,0,0-.2.24,1.15,1.15,0,0,0-.07.4v3.49a1.13,1.13,0,0,0,.07.39.6.6,0,0,0,.2.24.54.54,0,0,0,.31.09.52.52,0,0,0,.31-.09.56.56,0,0,0,.2-.25,1.07,1.07,0,0,0,.06-.39V18.7h1.05v.42a2.29,2.29,0,0,1-.2.95,1.33,1.33,0,0,1-.55.6,2,2,0,0,1-1.74,0Z" transform="translate(-0.11 -0.13)"/><path class="cls-5" d="M14.76,14h1V20.8h-1Zm.81,3.75L17.13,14h1.16l-2.76,5.66Zm.56-.6.71-.7L18.5,20.8H17.35Z" transform="translate(-0.11 -0.13)"/><path class="cls-5" d="M19,14h1V20.8H19Zm.53,3.2h1.25a.51.51,0,0,0,.28-.07.44.44,0,0,0,.18-.22.71.71,0,0,0,.07-.34V15.6a1,1,0,0,0-.06-.36A.59.59,0,0,0,21,15a.51.51,0,0,0-.28-.08H19.49V14h1.26a1.8,1.8,0,0,1,.84.18,1.2,1.2,0,0,1,.54.53,1.8,1.8,0,0,1,.19.84v1.12a1.74,1.74,0,0,1-.19.82,1.29,1.29,0,0,1-.54.52,1.8,1.8,0,0,1-.84.18H19.49Z" transform="translate(-0.11 -0.13)"/><path class="cls-5" d="M23.88,20.68a1.47,1.47,0,0,1-.59-.57,1.81,1.81,0,0,1-.21-.9V15.55a1.81,1.81,0,0,1,.21-.9,1.35,1.35,0,0,1,.59-.57,2.06,2.06,0,0,1,.93-.19,2,2,0,0,1,.93.19,1.38,1.38,0,0,1,.6.57,1.93,1.93,0,0,1,.2.9v3.66a1.93,1.93,0,0,1-.2.9,1.5,1.5,0,0,1-.6.57,2,2,0,0,1-.93.19A2.06,2.06,0,0,1,23.88,20.68Zm1.3-.91a.47.47,0,0,0,.24-.24.89.89,0,0,0,.08-.38V15.61a.86.86,0,0,0-.08-.38.47.47,0,0,0-.24-.24.7.7,0,0,0-.37-.09.72.72,0,0,0-.37.09.49.49,0,0,0-.23.24.74.74,0,0,0-.08.38v3.54a.76.76,0,0,0,.08.38.49.49,0,0,0,.23.24.72.72,0,0,0,.37.09A.7.7,0,0,0,25.18,19.77Z" transform="translate(-0.11 -0.13)"/><path class="cls-5" d="M27,14h3.39v1H27Zm1.18.56h1V20.8h-1Z" transform="translate(-0.11 -0.13)"/></svg>