<svg id="Layer_1" data-name="Layer 1" xmlns="http://www.w3.org/2000/svg" width="1.19cm" height="1.2cm" viewBox="0 0 33.83 33.88"><defs><style>.cls-1,.cls-3{stroke:#000;stroke-miterlimit:10;}.cls-2,.cls-4{isolation:isolate;font-size:6.21px;font-family:Arial-BoldMT, Arial;font-weight:700;}.cls-2,.cls-3{fill:#fff;}.cls-5{letter-spacing:-0.06em;}</style></defs><circle class="cls-1" cx="5.57" cy="16.97" r="5.07"/><circle class="cls-1" cx="28.26" cy="16.85" r="5.07"/><text class="cls-2" transform="translate(25.57 19.02) scale(0.76 1)">20</text><circle class="cls-3" cx="16.91" cy="17.09" r="5.07"/><text class="cls-4" transform="translate(13.97 19.41) scale(0.76 1)">15</text><text class="cls-2" transform="translate(2.8 19.04) scale(0.76 1)"><tspan class="cls-5">1</tspan><tspan x="3.11" y="0">1</tspan></text><circle class="cls-1" cx="5.86" cy="5.63" r="5.07"/><text class="cls-2" transform="translate(4.65 7.68) scale(0.76 1)">2</text><circle class="cls-1" cx="16.91" cy="5.57" r="5.07"/><text class="cls-2" transform="translate(15.78 7.87) scale(0.76 1)">7</text><circle class="cls-1" cx="28.26" cy="5.8" r="5.07"/><text class="cls-2" transform="translate(26.97 7.9) scale(0.76 1)">8</text><circle class="cls-1" cx="5.57" cy="28.31" r="5.07"/><text class="cls-2" transform="translate(2.78 30.45) scale(0.76 1)">23</text><circle class="cls-1" cx="16.91" cy="28.31" r="5.07"/><text class="cls-2" transform="translate(14.02 30.49) scale(0.76 1)">27</text><circle class="cls-1" cx="28.26" cy="28.31" r="5.07"/><text class="cls-2" transform="translate(25.62 30.49) scale(0.76 1)">36</text></svg>