<svg id="Layer_1" data-name="Layer 1" xmlns="http://www.w3.org/2000/svg" width="1.17cm" height="1.15cm" viewBox="0 0 33.2 32.58"><defs><style>.cls-1{fill:#fff;}.cls-1,.cls-2,.cls-3,.cls-4{stroke:#000;stroke-miterlimit:10;}.cls-3{fill:#ed1c24;}.cls-4{fill:none;}</style></defs><circle class="cls-1" cx="16.35" cy="15.3" r="13.97"/><circle class="cls-1" cx="16.44" cy="15.3" r="12.14"/><circle class="cls-2" cx="16.26" cy="15.21" r="2.15"/><circle class="cls-1" cx="7.97" cy="14.57" r="2.15"/><circle class="cls-1" cx="9.3" cy="20.29" r="2.15"/><circle class="cls-3" cx="21.68" cy="21.8" r="2.15"/><circle class="cls-1" cx="23.4" cy="11.07" r="2.15"/><circle class="cls-1" cx="24.93" cy="16.77" r="2.15"/><line class="cls-4" x1="17.26" y1="16.72" x2="25.15" y2="31.88"/><line class="cls-4" x1="15.15" y1="17.05" x2="7.27" y2="32.21"/><line class="cls-4" x1="4.18" y1="32.08" x2="29.02" y2="32.08"/><path class="cls-4" d="M9.57,1.31a13.86,13.86,0,0,0-8.34,11" transform="translate(-0.73 -0.85)"/><path class="cls-4" d="M27.07,29.39a13.85,13.85,0,0,0,6.35-12.24" transform="translate(-0.73 -0.85)"/></svg>