<svg id="Layer_1" data-name="Layer 1" xmlns="http://www.w3.org/2000/svg" width="1.07cm" height="1.19cm" viewBox="0 0 30.26 33.6"><defs><style>.cls-1,.cls-2,.cls-6{fill:#fff;}.cls-1,.cls-2,.cls-3,.cls-4,.cls-5{stroke:#000;}.cls-1,.cls-2,.cls-4,.cls-5{stroke-miterlimit:10;}.cls-2,.cls-4{stroke-width:0.75px;}.cls-3{stroke-miterlimit:10;stroke-width:2px;}.cls-4{fill:#ed1c24;}</style></defs><rect class="cls-1" x="0.5" y="0.5" width="29.26" height="32.6" rx="1.98"/><rect class="cls-2" x="3.31" y="10.85" width="23.71" height="19.26"/><rect class="cls-3" x="6.22" y="15.81" width="3.91" height="1.93" rx="0.97" transform="translate(-10.25 12.6) rotate(-51.72)"/><rect class="cls-3" x="19.65" y="23.82" width="4.43" height="1.93" rx="0.97" transform="translate(-11.33 26.39) rotate(-51.72)"/><rect class="cls-3" x="6.09" y="16.88" width="7.89" height="1.93" rx="0.97" transform="translate(-10.39 14.46) rotate(-51.72)"/><rect class="cls-3" x="15.21" y="22.09" width="9.63" height="1.93" rx="0.97" transform="translate(-10.67 24.28) rotate(-51.72)"/><rect class="cls-3" x="5.85" y="18.18" width="12.3" height="1.93" rx="0.97" transform="translate(-10.66 16.5) rotate(-51.72)"/><rect class="cls-3" x="10.69" y="19.83" width="14.51" height="1.93" rx="0.97" transform="translate(-9.69 21.79) rotate(-51.72)"/><rect class="cls-3" x="6.85" y="19.37" width="14.89" height="1.93" rx="0.97" transform="translate(-10.72 18.75) rotate(-51.72)"/><polygon class="cls-4" points="17.15 8.32 15.42 7.41 13.68 8.32 14.02 6.38 12.62 5.02 14.56 4.74 15.42 2.99 16.29 4.74 18.22 5.03 16.82 6.39 17.15 8.32"/><polygon class="cls-5" points="8.42 8.24 6.69 7.33 4.96 8.23 5.29 6.3 3.89 4.94 5.83 4.66 6.7 2.9 7.56 4.66 9.5 4.94 8.1 6.31 8.42 8.24"/><polygon class="cls-5" points="25.79 8.4 24.06 7.49 22.33 8.4 22.66 6.47 21.26 5.1 23.2 4.82 24.07 3.07 24.93 4.82 26.87 5.11 25.46 6.47 25.79 8.4"/><path class="cls-6" d="M11.45,23.41H10.33V18.77L9.6,19V17.85l.89-.4h1Z" transform="translate(-0.19 -0.21)"/><path class="cls-6" d="M13.09,23a1.67,1.67,0,0,1-.45-1.26V19.07a1.65,1.65,0,0,1,.45-1.25,1.8,1.8,0,0,1,1.33-.44,1.81,1.81,0,0,1,1.33.44,1.65,1.65,0,0,1,.45,1.25v2.69A1.65,1.65,0,0,1,15.75,23a1.86,1.86,0,0,1-1.33.45A1.85,1.85,0,0,1,13.09,23Zm1.83-.86a1.21,1.21,0,0,0,.16-.67V19.36a1.19,1.19,0,0,0-.16-.67.56.56,0,0,0-.5-.23.54.54,0,0,0-.5.23,1.19,1.19,0,0,0-.16.67v2.13a1.21,1.21,0,0,0,.16.67.56.56,0,0,0,.5.23A.58.58,0,0,0,14.92,22.16Z" transform="translate(-0.19 -0.21)"/><path class="cls-6" d="M17.56,23a1.63,1.63,0,0,1-.45-1.26V19.07a1.65,1.65,0,0,1,.45-1.25,1.81,1.81,0,0,1,1.33-.44,1.81,1.81,0,0,1,1.33.44,1.65,1.65,0,0,1,.45,1.25v2.69A1.68,1.68,0,0,1,20.22,23a1.86,1.86,0,0,1-1.33.45A1.85,1.85,0,0,1,17.56,23Zm1.83-.86a1.21,1.21,0,0,0,.16-.67V19.36a1.19,1.19,0,0,0-.16-.67.66.66,0,0,0-.93-.08l-.07.08a1.11,1.11,0,0,0-.16.67v2.13a1.13,1.13,0,0,0,.16.67.66.66,0,0,0,.93.07Z" transform="translate(-0.19 -0.21)"/></svg>